<svg width="41" height="40" viewBox="0 0 41 40" fill="none" xmlns="http://www.w3.org/2000/svg">
<path d="M30.0399 29.6C29.1599 29.6 28.4063 29.2864 27.7791 28.6592C27.1519 28.032 26.8389 27.2789 26.8399 26.4C26.8399 25.52 27.1535 24.7664 27.7807 24.1392C28.4079 23.512 29.161 23.1989 30.0399 23.2C30.9199 23.2 31.6735 23.5136 32.3007 24.1408C32.9279 24.768 33.241 25.5211 33.2399 26.4C33.2399 27.28 32.9263 28.0336 32.2991 28.6608C31.6719 29.288 30.9189 29.6011 30.0399 29.6ZM23.6399 36V35.08C23.6399 33.9067 24.2266 32.9664 25.3999 32.2592C26.5733 31.552 28.1199 31.1989 30.0399 31.2C31.9599 31.2 33.5066 31.5536 34.6799 32.2608C35.8533 32.968 36.4399 33.9077 36.4399 35.08V36H23.6399ZM28.4399 20H25.2399V12C25.2399 10.64 24.7599 9.49973 23.7999 8.5792C22.8399 7.65867 21.7199 7.19893 20.4399 7.2C19.1599 7.2 18.0399 7.66027 17.0799 8.5808C16.1199 9.50133 15.6399 10.6411 15.6399 12V28C15.6399 29.28 16.1199 30.4 17.0799 31.36C18.0399 32.32 19.1599 32.8 20.4399 32.8V36C18.1733 36 16.273 35.2331 14.7391 33.6992C13.2053 32.1653 12.4389 30.2656 12.4399 28V12C12.4399 9.73333 13.2069 7.83307 14.7407 6.2992C16.2746 4.76533 18.1743 3.99893 20.4399 4C22.7066 4 24.6069 4.76693 26.1407 6.3008C27.6746 7.83467 28.441 9.7344 28.4399 12V20ZM20.4399 16.8C21.3199 16.8 22.0735 16.4864 22.7007 15.8592C23.3279 15.232 23.641 14.4789 23.6399 13.6C23.6399 12.72 23.3263 11.9664 22.6991 11.3392C22.0719 10.712 21.3189 10.3989 20.4399 10.4C19.5599 10.4 18.8063 10.7136 18.1791 11.3408C17.5519 11.968 17.2389 12.7211 17.2399 13.6C17.2399 14.48 17.5535 15.2336 18.1807 15.8608C18.8079 16.488 19.561 16.8011 20.4399 16.8ZM17.2399 26.4C17.2399 27.28 17.5535 28.0336 18.1807 28.6608C18.8079 29.288 19.561 29.6011 20.4399 29.6C21.3199 29.6 22.0735 29.2864 22.7007 28.6592C23.3279 28.032 23.641 27.2789 23.6399 26.4C23.6399 25.52 23.3263 24.7664 22.6991 24.1392C22.0719 23.512 21.3189 23.1989 20.4399 23.2C19.5599 23.2 18.8063 23.5136 18.1791 24.1408C17.5519 24.768 17.2389 25.5211 17.2399 26.4ZM20.4399 28C19.9599 28 19.5733 27.8331 19.2799 27.4992C18.9866 27.1653 18.8399 26.7989 18.8399 26.4C18.8399 26 18.9866 25.6331 19.2799 25.2992C19.5733 24.9653 19.9599 24.7989 20.4399 24.8C20.9199 24.8 21.3066 24.9467 21.5999 25.24C21.8933 25.5333 22.0399 25.92 22.0399 26.4C22.0399 26.8 21.8933 27.1669 21.5999 27.5008C21.3066 27.8347 20.9199 28.0011 20.4399 28Z" fill="white"/>
</svg>
