<svg width="20" height="15" viewBox="0 0 20 15" fill="none" xmlns="http://www.w3.org/2000/svg">
<path d="M6.25 2.50204C5.91848 2.50204 5.60054 2.63368 5.36612 2.86801C5.1317 3.10233 5 3.42015 5 3.75153C5 4.08292 5.1317 4.40073 5.36612 4.63505C5.60054 4.86938 5.91848 5.00102 6.25 5.00102C6.58152 5.00102 6.89946 4.86938 7.13388 4.63505C7.3683 4.40073 7.5 4.08292 7.5 3.75153C7.5 3.42015 7.3683 3.10233 7.13388 2.86801C6.89946 2.63368 6.58152 2.50204 6.25 2.50204ZM2.7125 2.50204C2.97075 1.77042 3.44967 1.13689 4.08325 0.688769C4.71683 0.240646 5.47386 0 6.25 0C7.02614 0 7.78317 0.240646 8.41675 0.688769C9.05033 1.13689 9.52925 1.77042 9.7875 2.50204H18.75C19.0815 2.50204 19.3995 2.63368 19.6339 2.86801C19.8683 3.10233 20 3.42015 20 3.75153C20 4.08292 19.8683 4.40073 19.6339 4.63505C19.3995 4.86938 19.0815 5.00102 18.75 5.00102H9.7875C9.52925 5.73264 9.05033 6.36617 8.41675 6.81429C7.78317 7.26241 7.02614 7.50306 6.25 7.50306C5.47386 7.50306 4.71683 7.26241 4.08325 6.81429C3.44967 6.36617 2.97075 5.73264 2.7125 5.00102H1.25C0.918479 5.00102 0.600537 4.86938 0.366117 4.63505C0.131696 4.40073 0 4.08292 0 3.75153C0 3.42015 0.131696 3.10233 0.366117 2.86801C0.600537 2.63368 0.918479 2.50204 1.25 2.50204H2.7125ZM13.75 9.99898C13.4185 9.99898 13.1005 10.1306 12.8661 10.3649C12.6317 10.5993 12.5 10.9171 12.5 11.2485C12.5 11.5799 12.6317 11.8977 12.8661 12.132C13.1005 12.3663 13.4185 12.498 13.75 12.498C14.0815 12.498 14.3995 12.3663 14.6339 12.132C14.8683 11.8977 15 11.5799 15 11.2485C15 10.9171 14.8683 10.5993 14.6339 10.3649C14.3995 10.1306 14.0815 9.99898 13.75 9.99898ZM10.2125 9.99898C10.4708 9.26736 10.9497 8.63383 11.5833 8.18571C12.2168 7.73758 12.9739 7.49694 13.75 7.49694C14.5261 7.49694 15.2832 7.73758 15.9167 8.18571C16.5503 8.63383 17.0292 9.26736 17.2875 9.99898H18.75C19.0815 9.99898 19.3995 10.1306 19.6339 10.3649C19.8683 10.5993 20 10.9171 20 11.2485C20 11.5799 19.8683 11.8977 19.6339 12.132C19.3995 12.3663 19.0815 12.498 18.75 12.498H17.2875C17.0292 13.2296 16.5503 13.8631 15.9167 14.3112C15.2832 14.7594 14.5261 15 13.75 15C12.9739 15 12.2168 14.7594 11.5833 14.3112C10.9497 13.8631 10.4708 13.2296 10.2125 12.498H1.25C0.918479 12.498 0.600537 12.3663 0.366117 12.132C0.131696 11.8977 0 11.5799 0 11.2485C0 10.9171 0.131696 10.5993 0.366117 10.3649C0.600537 10.1306 0.918479 9.99898 1.25 9.99898H10.2125Z" fill="#02486A"/>
</svg>
