<svg width="27" height="34" viewBox="0 0 27 34" fill="none" xmlns="http://www.w3.org/2000/svg">
<path d="M25.44 9.91172V27.7371C25.4401 28.4731 25.2952 29.202 25.0135 29.882C24.7319 30.5621 24.3191 31.18 23.7987 31.7005C23.2783 32.221 22.6605 32.6339 21.9805 32.9157C21.3005 33.1974 20.5716 33.3424 19.8356 33.3425H6.60514C5.86904 33.3425 5.14015 33.1975 4.46009 32.9158C3.78002 32.6341 3.16211 32.2212 2.64162 31.7007C2.12113 31.1802 1.70826 30.5622 1.42659 29.8822C1.14492 29.2021 0.999968 28.4732 1 27.7371V9.91172C0.999935 9.17566 1.14485 8.44678 1.42648 7.76673C1.70811 7.08667 2.12093 6.46874 2.64137 5.94823C3.16181 5.42772 3.77969 5.01482 4.45971 4.7331C5.13973 4.45138 5.86858 4.30637 6.60464 4.30634H7.86075V5.65906C7.86016 6.11775 8.04177 6.5579 8.36565 6.88271C8.68953 7.20752 9.12916 7.39039 9.58786 7.39111H17.227C17.6857 7.3917 18.1259 7.21009 18.4507 6.88621C18.7755 6.56232 18.9584 6.1227 18.9591 5.664V4.30634H19.8354C21.3218 4.30634 22.7474 4.89682 23.7984 5.9479C24.8495 6.99897 25.44 8.42453 25.44 9.91098V9.91172Z" stroke="#211D2E" stroke-width="1.27644" stroke-linecap="round" stroke-linejoin="round"/>
<path d="M23.0116 9.91172V27.7371C23.0108 28.5792 22.6759 29.3865 22.0804 29.9819C21.4849 30.5773 20.6775 30.912 19.8354 30.9126H6.60517C5.76319 30.9117 4.95595 30.5768 4.36052 29.9815C3.76508 29.3862 3.43007 28.5791 3.42896 27.7371V9.91172C3.42981 9.06957 3.76471 8.26216 4.36017 7.66665C4.95563 7.07114 5.76302 6.73618 6.60517 6.73526H8.23442C8.39631 6.93991 8.60246 7.10523 8.83738 7.21882C9.07231 7.33241 9.32991 7.39131 9.59085 7.39111H17.2268C17.4882 7.39147 17.7462 7.33265 17.9816 7.21907C18.217 7.10548 18.4236 6.94008 18.586 6.73526H19.8354C20.6776 6.73585 21.4852 7.07071 22.0807 7.66629C22.6763 8.26187 23.0111 9.06947 23.0116 9.91172Z" stroke="#211D2E" stroke-width="1.27644" stroke-linecap="round" stroke-linejoin="round"/>
<path d="M18.9592 4.14941V5.65906C18.9598 6.11775 18.7781 6.5579 18.4543 6.88271C18.1304 7.20751 17.6907 7.39039 17.2321 7.39111H9.59091C9.13213 7.39111 8.69214 7.20886 8.36774 6.88445C8.04333 6.56005 7.86108 6.12006 7.86108 5.66128V4.14941C7.86108 3.69063 8.04333 3.25064 8.36774 2.92624C8.69214 2.60183 9.13213 2.41958 9.59091 2.41958H11.6173C11.7127 2.01551 11.9417 1.65549 12.2672 1.39783C12.5928 1.14018 12.9958 1 13.411 1C13.8262 1 14.2292 1.14018 14.5547 1.39783C14.8803 1.65549 15.1093 2.01551 15.2047 2.41958H17.2281C17.687 2.41971 18.127 2.60196 18.4516 2.92631C18.7761 3.25065 18.9587 3.69056 18.9592 4.14941Z" stroke="#211D2E" stroke-width="1.27644" stroke-linecap="round" stroke-linejoin="round"/>
<path d="M17.2634 16.4067H14.9158V14.0591H11.5249V16.4067H9.17749V19.7974H11.5249V22.1451H14.9158V19.7974H17.2634V16.4067Z" stroke="#211D2E" stroke-width="1.27644" stroke-linecap="round" stroke-linejoin="round"/>
<path d="M7.91724 26.7111H18.5231" stroke="#211D2E" stroke-width="1.27644" stroke-linecap="round" stroke-linejoin="round"/>
</svg>
