<svg width="32" height="36" viewBox="0 0 32 36" fill="none" xmlns="http://www.w3.org/2000/svg">
<path d="M3.90503 17.8719V14.2225C3.90503 10.9809 5.19275 7.87204 7.48491 5.57988C9.77707 3.28772 12.8859 2 16.1275 2C19.3691 2 22.478 3.28772 24.7701 5.57988C27.0623 7.87204 28.35 10.9809 28.35 14.2225V17.8719" stroke="white" stroke-width="2.06364" stroke-linecap="round"/>
<path d="M3.36071 17.8719H6.36991V26.4386H3.36071C2.85129 26.4386 2.36273 26.2362 2.00252 25.876C1.64231 25.5158 1.43994 25.0272 1.43994 24.5178V19.7927C1.43994 19.2833 1.64231 18.7947 2.00252 18.4345C2.36273 18.0743 2.85129 17.8719 3.36071 17.8719Z" stroke="white" stroke-width="2.06364" stroke-linecap="round"/>
<path d="M28.8942 26.4385H25.885V17.8719H28.8942C29.4036 17.8719 29.8921 18.0743 30.2524 18.4345C30.6126 18.7947 30.8149 19.2833 30.8149 19.7927V24.5178C30.8149 25.0272 30.6126 25.5157 30.2524 25.876C29.8921 26.2362 29.4036 26.4385 28.8942 26.4385Z" stroke="white" stroke-width="2.06364" stroke-linecap="round"/>
<path d="M28.7403 26.6818V29.8831C28.7403 30.5623 28.4705 31.2137 27.9902 31.694C27.51 32.1743 26.8585 32.4441 26.1793 32.4441H19.0469" stroke="white" stroke-width="2.06364" stroke-linecap="round"/>
<path d="M17.7601 30.7539H15.135C14.4278 30.7539 13.8545 31.3272 13.8545 32.0344V32.7195C13.8545 33.4267 14.4278 34 15.135 34H17.7601C18.4673 34 19.0406 33.4267 19.0406 32.7195V32.0344C19.0406 31.3272 18.4673 30.7539 17.7601 30.7539Z" stroke="white" stroke-width="2.06364" stroke-linecap="round"/>
</svg>
