<svg xmlns="http://www.w3.org/2000/svg" xmlns:xlink="http://www.w3.org/1999/xlink" version="1.1" width="256" height="256" viewBox="0 0 256 256" xml:space="preserve">

<defs>
</defs>
<g style="stroke: none; stroke-width: 0; stroke-dasharray: none; stroke-linecap: butt; stroke-linejoin: miter; stroke-miterlimit: 10; fill: none; fill-rule: nonzero; opacity: 1;" transform="translate(1.4065934065934016 1.4065934065934016) scale(2.81 2.81)" >
	<path d="M 82.425 17.327 L 66.294 1.196 C 65.522 0.425 64.498 0 63.407 0 H 20.349 c -2.251 0 -4.083 1.832 -4.083 4.083 V 51 h -5.463 c -2.439 0 -4.423 1.984 -4.423 4.423 v 17.721 c 0 2.438 1.984 4.423 4.423 4.423 h 5.463 v 8.351 c 0 2.251 1.832 4.083 4.083 4.083 h 59.189 c 2.251 0 4.083 -1.832 4.083 -4.083 V 20.214 C 83.621 19.124 83.196 18.099 82.425 17.327 z M 80.207 17.937 H 67.493 c -0.998 0 -1.81 -0.812 -1.81 -1.809 V 3.414 L 80.207 17.937 z M 8.379 73.144 V 55.423 c 0 -1.336 1.087 -2.423 2.423 -2.423 h 39.98 c 1.336 0 2.423 1.087 2.423 2.423 v 17.721 c 0 1.336 -1.087 2.423 -2.423 2.423 h -39.98 C 9.466 75.566 8.379 74.479 8.379 73.144 z M 81.621 85.917 c 0 1.148 -0.935 2.083 -2.083 2.083 H 20.349 c -1.148 0 -2.083 -0.935 -2.083 -2.083 v -8.351 h 32.517 c 2.438 0 4.423 -1.984 4.423 -4.423 V 55.423 c 0 -2.438 -1.984 -4.423 -4.423 -4.423 H 18.266 V 4.083 C 18.266 2.935 19.2 2 20.349 2 h 43.059 c 0.094 0 0.185 0.015 0.276 0.027 v 14.101 c 0 2.1 1.709 3.809 3.81 3.809 h 14.1 c 0.013 0.092 0.028 0.184 0.028 0.277 V 85.917 z" style="stroke: none; stroke-width: 1; stroke-dasharray: none; stroke-linecap: butt; stroke-linejoin: miter; stroke-miterlimit: 10; fill: rgb(0,0,0); fill-rule: nonzero; opacity: 1;" transform=" matrix(1 0 0 1 0 0) " stroke-linecap="round" />
	<path d="M 71.956 75.566 H 61.817 c -0.553 0 -1 0.447 -1 1 s 0.447 1 1 1 h 10.139 c 0.553 0 1 -0.447 1 -1 S 72.509 75.566 71.956 75.566 z" style="stroke: none; stroke-width: 1; stroke-dasharray: none; stroke-linecap: butt; stroke-linejoin: miter; stroke-miterlimit: 10; fill: rgb(0,0,0); fill-rule: nonzero; opacity: 1;" transform=" matrix(1 0 0 1 0 0) " stroke-linecap="round" />
	<path d="M 71.956 63.283 H 61.817 c -0.553 0 -1 0.447 -1 1 s 0.447 1 1 1 h 10.139 c 0.553 0 1 -0.447 1 -1 S 72.509 63.283 71.956 63.283 z" style="stroke: none; stroke-width: 1; stroke-dasharray: none; stroke-linecap: butt; stroke-linejoin: miter; stroke-miterlimit: 10; fill: rgb(0,0,0); fill-rule: nonzero; opacity: 1;" transform=" matrix(1 0 0 1 0 0) " stroke-linecap="round" />
	<path d="M 20.133 69.271 h -4.309 V 58.296 c 0 -0.553 -0.448 -1 -1 -1 s -1 0.447 -1 1 v 11.975 c 0 0.553 0.448 1 1 1 h 5.309 c 0.552 0 1 -0.447 1 -1 S 20.685 69.271 20.133 69.271 z" style="stroke: none; stroke-width: 1; stroke-dasharray: none; stroke-linecap: butt; stroke-linejoin: miter; stroke-miterlimit: 10; fill: rgb(0,0,0); fill-rule: nonzero; opacity: 1;" transform=" matrix(1 0 0 1 0 0) " stroke-linecap="round" />
	<path d="M 30.352 57.296 h -2.269 c -1.975 0 -3.582 1.606 -3.582 3.582 v 6.811 c 0 1.976 1.607 3.582 3.582 3.582 h 2.269 c 1.975 0 3.582 -1.606 3.582 -3.582 v -6.811 C 33.934 58.902 32.327 57.296 30.352 57.296 z M 31.934 67.688 c 0 0.872 -0.709 1.582 -1.582 1.582 h -2.269 c -0.873 0 -1.582 -0.71 -1.582 -1.582 v -6.811 c 0 -0.872 0.709 -1.582 1.582 -1.582 h 2.269 c 0.872 0 1.582 0.71 1.582 1.582 V 67.688 z" style="stroke: none; stroke-width: 1; stroke-dasharray: none; stroke-linecap: butt; stroke-linejoin: miter; stroke-miterlimit: 10; fill: rgb(0,0,0); fill-rule: nonzero; opacity: 1;" transform=" matrix(1 0 0 1 0 0) " stroke-linecap="round" />
	<path d="M 46.761 63.283 h -2.488 c -0.552 0 -1 0.447 -1 1 s 0.448 1 1 1 h 1.488 v 2.405 c 0 0.872 -0.709 1.582 -1.582 1.582 H 41.91 c -0.873 0 -1.582 -0.71 -1.582 -1.582 v -6.811 c 0 -0.872 0.709 -1.582 1.582 -1.582 h 2.919 c 0.552 0 1 -0.447 1 -1 s -0.448 -1 -1 -1 H 41.91 c -1.975 0 -3.582 1.606 -3.582 3.582 v 6.811 c 0 1.976 1.607 3.582 3.582 3.582 h 2.269 c 1.976 0 3.582 -1.606 3.582 -3.582 v -3.405 C 47.761 63.73 47.313 63.283 46.761 63.283 z" style="stroke: none; stroke-width: 1; stroke-dasharray: none; stroke-linecap: butt; stroke-linejoin: miter; stroke-miterlimit: 10; fill: rgb(0,0,0); fill-rule: nonzero; opacity: 1;" transform=" matrix(1 0 0 1 0 0) " stroke-linecap="round" />
	<path d="M 71.956 51 H 61.817 c -0.553 0 -1 0.447 -1 1 s 0.447 1 1 1 h 10.139 c 0.553 0 1 -0.447 1 -1 S 72.509 51 71.956 51 z" style="stroke: none; stroke-width: 1; stroke-dasharray: none; stroke-linecap: butt; stroke-linejoin: miter; stroke-miterlimit: 10; fill: rgb(0,0,0); fill-rule: nonzero; opacity: 1;" transform=" matrix(1 0 0 1 0 0) " stroke-linecap="round" />
	<path d="M 71.956 37 H 25.501 c -0.552 0 -1 0.448 -1 1 s 0.448 1 1 1 h 46.455 c 0.553 0 1 -0.448 1 -1 S 72.509 37 71.956 37 z" style="stroke: none; stroke-width: 1; stroke-dasharray: none; stroke-linecap: butt; stroke-linejoin: miter; stroke-miterlimit: 10; fill: rgb(0,0,0); fill-rule: nonzero; opacity: 1;" transform=" matrix(1 0 0 1 0 0) " stroke-linecap="round" />
	<path d="M 25.501 26.717 h 32.455 c 0.553 0 1 -0.448 1 -1 s -0.447 -1 -1 -1 H 25.501 c -0.552 0 -1 0.448 -1 1 S 24.949 26.717 25.501 26.717 z" style="stroke: none; stroke-width: 1; stroke-dasharray: none; stroke-linecap: butt; stroke-linejoin: miter; stroke-miterlimit: 10; fill: rgb(0,0,0); fill-rule: nonzero; opacity: 1;" transform=" matrix(1 0 0 1 0 0) " stroke-linecap="round" />
	<path d="M 25.501 14.433 h 26.455 c 0.553 0 1 -0.448 1 -1 s -0.447 -1 -1 -1 H 25.501 c -0.552 0 -1 0.448 -1 1 S 24.949 14.433 25.501 14.433 z" style="stroke: none; stroke-width: 1; stroke-dasharray: none; stroke-linecap: butt; stroke-linejoin: miter; stroke-miterlimit: 10; fill: rgb(0,0,0); fill-rule: nonzero; opacity: 1;" transform=" matrix(1 0 0 1 0 0) " stroke-linecap="round" />
</g>
</svg>